<svg width="960" height="560" viewBox="0 0 960 560" fill="none" xmlns="http://www.w3.org/2000/svg">
  <defs>
    <linearGradient id="bg" x1="52" y1="28" x2="908" y2="530" gradientUnits="userSpaceOnUse">
      <stop stop-color="#0B1020"/>
      <stop offset="1" stop-color="#131A2E"/>
    </linearGradient>
    <linearGradient id="card" x1="0" y1="0" x2="0" y2="1">
      <stop stop-color="#1A2340"/>
      <stop offset="1" stop-color="#11182C"/>
    </linearGradient>
    <linearGradient id="accent" x1="0" y1="0" x2="1" y2="1">
      <stop stop-color="#5BB3FF"/>
      <stop offset="1" stop-color="#335BFF"/>
    </linearGradient>
  </defs>
  <rect width="960" height="560" rx="32" fill="url(#bg)"/>
  <rect x="24" y="24" width="912" height="512" rx="28" fill="#0E1428" stroke="#263150"/>
  <rect x="24" y="24" width="912" height="70" rx="28" fill="#10172B" stroke="#263150"/>
  <rect x="54" y="45" width="110" height="18" rx="9" fill="#1B2542"/>
  <rect x="176" y="45" width="180" height="18" rx="9" fill="#1B2542"/>
  <rect x="760" y="40" width="120" height="26" rx="13" fill="#1B2542"/>
  <circle cx="92" cy="145" r="24" fill="#1D8BD6"/>
  <rect x="58" y="188" width="170" height="280" rx="20" fill="#10182D" stroke="#263150"/>
  <rect x="58" y="212" width="112" height="12" rx="6" fill="#465372"/>
  <rect x="58" y="246" width="124" height="34" rx="12" fill="#18213A"/>
  <rect x="58" y="292" width="124" height="34" rx="12" fill="#18213A"/>
  <rect x="58" y="338" width="124" height="34" rx="12" fill="#18213A"/>
  <rect x="58" y="384" width="124" height="34" rx="12" fill="#18213A"/>
  <rect x="270" y="130" width="640" height="338" rx="24" fill="url(#card)" stroke="#2F3A58"/>
  <rect x="294" y="154" width="132" height="14" rx="7" fill="#4F5D80"/>
  <rect x="294" y="186" width="180" height="22" rx="11" fill="#1A2541"/>
  <rect x="294" y="222" width="580" height="1" fill="#2B3652"/>
  <rect x="294" y="244" width="548" height="18" rx="9" fill="#18233D"/>
  <rect x="294" y="274" width="548" height="18" rx="9" fill="#18233D"/>
  <rect x="294" y="304" width="548" height="18" rx="9" fill="#18233D"/>
  <rect x="294" y="334" width="548" height="18" rx="9" fill="#18233D"/>
  <rect x="294" y="364" width="548" height="18" rx="9" fill="#18233D"/>
  <rect x="294" y="394" width="548" height="18" rx="9" fill="#18233D"/>
  <rect x="294" y="244" width="292" height="18" rx="9" fill="url(#accent)"/>
  <rect x="294" y="274" width="256" height="18" rx="9" fill="url(#accent)"/>
  <rect x="294" y="304" width="410" height="18" rx="9" fill="url(#accent)"/>
  <rect x="294" y="334" width="336" height="18" rx="9" fill="url(#accent)"/>
  <rect x="294" y="364" width="226" height="18" rx="9" fill="url(#accent)"/>
  <rect x="294" y="394" width="466" height="18" rx="9" fill="url(#accent)"/>
  <rect x="684" y="154" width="146" height="138" rx="20" fill="#16213A" stroke="#263150"/>
  <circle cx="758" cy="222" r="42" stroke="#335BFF" stroke-width="14" opacity="0.9"/>
  <path d="M758 180a42 42 0 1 1 0 84" stroke="#1DD2A4" stroke-width="14" stroke-linecap="round"/>
  <text x="758" y="230" text-anchor="middle" fill="#F2F6FF" font-family="Inter, Arial, sans-serif" font-size="24" font-weight="700">843</text>
  <text x="758" y="250" text-anchor="middle" fill="#8DA0C3" font-family="Inter, Arial, sans-serif" font-size="12" font-weight="500">total</text>
  <rect x="684" y="310" width="146" height="96" rx="20" fill="#16213A" stroke="#263150"/>
  <rect x="704" y="330" width="62" height="12" rx="6" fill="#41D391"/>
  <rect x="704" y="352" width="98" height="12" rx="6" fill="#335BFF"/>
  <rect x="704" y="374" width="82" height="12" rx="6" fill="#6C6CF7"/>
</svg>
