<svg width="960" height="560" viewBox="0 0 960 560" fill="none" xmlns="http://www.w3.org/2000/svg">
  <defs>
    <linearGradient id="bg" x1="64" y1="20" x2="900" y2="536" gradientUnits="userSpaceOnUse">
      <stop stop-color="#091126"/>
      <stop offset="1" stop-color="#13213B"/>
    </linearGradient>
  </defs>
  <rect width="960" height="560" rx="32" fill="url(#bg)"/>
  <rect x="24" y="24" width="912" height="512" rx="28" fill="#0D152B" stroke="#263150"/>
  <rect x="48" y="48" width="356" height="424" rx="26" fill="#121B32" stroke="#293553"/>
  <rect x="452" y="48" width="460" height="220" rx="26" fill="#121B32" stroke="#293553"/>
  <rect x="452" y="292" width="460" height="180" rx="26" fill="#121B32" stroke="#293553"/>
  <rect x="74" y="80" width="120" height="16" rx="8" fill="#1B2745"/>
  <rect x="74" y="122" width="264" height="48" rx="18" fill="#18233D" stroke="#2C3654"/>
  <rect x="74" y="184" width="264" height="48" rx="18" fill="#18233D" stroke="#2C3654"/>
  <rect x="74" y="246" width="264" height="48" rx="18" fill="#18233D" stroke="#2C3654"/>
  <rect x="74" y="308" width="264" height="48" rx="18" fill="#18233D" stroke="#2C3654"/>
  <rect x="74" y="370" width="264" height="48" rx="18" fill="#18233D" stroke="#2C3654"/>
  <circle cx="98" cy="146" r="12" fill="#1DD28F"/>
  <circle cx="98" cy="208" r="12" fill="#1DD28F"/>
  <circle cx="98" cy="270" r="12" fill="#1DD28F"/>
  <circle cx="98" cy="332" r="12" fill="#1DD28F"/>
  <circle cx="98" cy="394" r="12" fill="#3A7BFF"/>
  <text x="126" y="150" fill="#EEF4FF" font-family="Inter, Arial, sans-serif" font-size="13" font-weight="700">Form Data (Review)</text>
  <text x="126" y="212" fill="#EEF4FF" font-family="Inter, Arial, sans-serif" font-size="13" font-weight="700">Uploaded Documents</text>
  <text x="126" y="274" fill="#EEF4FF" font-family="Inter, Arial, sans-serif" font-size="13" font-weight="700">Analysis: Cover Letter</text>
  <text x="126" y="336" fill="#EEF4FF" font-family="Inter, Arial, sans-serif" font-size="13" font-weight="700">Form I-539</text>
  <text x="126" y="398" fill="#EEF4FF" font-family="Inter, Arial, sans-serif" font-size="13" font-weight="700">Review I-20 and SEVIS</text>
  <rect x="480" y="72" width="220" height="20" rx="10" fill="#1B2745"/>
  <rect x="480" y="118" width="388" height="24" rx="12" fill="#18233D"/>
  <rect x="480" y="154" width="266" height="24" rx="12" fill="#18233D"/>
  <rect x="480" y="190" width="310" height="24" rx="12" fill="#18233D"/>
  <rect x="480" y="226" width="170" height="24" rx="12" fill="#18233D"/>
  <rect x="480" y="314" width="336" height="24" rx="12" fill="#18233D"/>
  <rect x="480" y="350" width="212" height="24" rx="12" fill="#18233D"/>
  <rect x="480" y="386" width="272" height="24" rx="12" fill="#18233D"/>
  <rect x="744" y="72" width="122" height="20" rx="10" fill="#1B2745"/>
  <rect x="744" y="118" width="116" height="24" rx="12" fill="#19253F" stroke="#2B3552"/>
  <rect x="744" y="154" width="116" height="24" rx="12" fill="#19253F" stroke="#2B3552"/>
  <rect x="744" y="190" width="116" height="24" rx="12" fill="#19253F" stroke="#2B3552"/>
  <rect x="744" y="226" width="116" height="24" rx="12" fill="#19253F" stroke="#2B3552"/>
  <rect x="744" y="314" width="116" height="24" rx="12" fill="#19253F" stroke="#2B3552"/>
  <rect x="744" y="350" width="116" height="24" rx="12" fill="#19253F" stroke="#2B3552"/>
  <rect x="744" y="386" width="116" height="24" rx="12" fill="#19253F" stroke="#2B3552"/>
  <rect x="804" y="314" width="52" height="24" rx="12" fill="#1DD28F"/>
  <rect x="804" y="350" width="52" height="24" rx="12" fill="#1DD28F"/>
  <rect x="804" y="386" width="52" height="24" rx="12" fill="#1DD28F"/>
  <rect x="524" y="476" width="274" height="10" rx="5" fill="#1B2745"/>
  <rect x="524" y="476" width="198" height="10" rx="5" fill="#1DD28F"/>
  <rect x="804" y="474" width="44" height="12" rx="6" fill="#335BFF"/>
</svg>
